<svg width="19" height="22" viewBox="0 0 19 22" fill="none" xmlns="http://www.w3.org/2000/svg">
<rect width="19" height="22" fill="#E5E5E5"/>
<g clip-path="url(#clip0)">
<rect width="1440" height="1024" transform="translate(-1188 -45)" fill="#FAFAFA"/>
<g filter="url(#filter0_d)">
<rect width="1440" height="112" transform="translate(-1188 -45)" fill="white"/>
<mask id="mask0" style="mask-type:alpha" maskUnits="userSpaceOnUse" x="0" y="0" width="19" height="22">
<path fill-rule="evenodd" clip-rule="evenodd" d="M3.31607 6.695C3.31607 4.238 5.75207 1.5 9.24707 1.5C12.7421 1.5 15.1781 4.238 15.1781 6.695C15.1781 8.774 15.7551 9.735 16.2651 10.583C16.6741 11.264 16.9971 11.802 17.0001 12.906C16.8341 14.813 15.5501 15.848 9.24707 15.848C2.90907 15.848 1.66407 14.857 1.49707 12.971C1.49707 11.802 1.82007 11.264 2.22907 10.583C2.73907 9.735 3.31607 8.774 3.31607 6.695ZM7.43898e-05 13.035C0.345074 17.018 4.57107 17.348 9.24707 17.348C13.9231 17.348 18.1481 17.018 18.4971 12.971C18.4971 11.387 17.9941 10.549 17.5501 9.811C17.1011 9.063 16.6781 8.358 16.6781 6.695C16.6781 3.462 13.6921 0 9.24707 0C4.80207 0 1.81607 3.462 1.81607 6.695C1.81607 8.358 1.39307 9.063 0.944074 9.811C0.500074 10.549 -0.00292561 11.387 7.43898e-05 13.035ZM6.20909 20.108C7.01409 21.005 8.07509 21.499 9.19609 21.5H9.19809C10.3221 21.5 11.3851 21.006 12.1931 20.109C12.4701 19.802 12.4451 19.327 12.1371 19.05C11.8301 18.773 11.3561 18.798 11.0781 19.105C10.5591 19.683 9.89109 20 9.19809 20H9.19709C8.50709 20 7.84209 19.683 7.32409 19.106C7.04709 18.797 6.57309 18.772 6.26509 19.05C5.95709 19.326 5.93209 19.801 6.20909 20.108Z" fill="white"/>
</mask>
<g mask="url(#mask0)">
<rect x="-2.59998" y="-1.06055" width="24" height="24" fill="black"/>
</g>
</g>
</g>
<defs>
<filter id="filter0_d" x="-1222" y="-60" width="1508" height="180" filterUnits="userSpaceOnUse" color-interpolation-filters="sRGB">
<feFlood flood-opacity="0" result="BackgroundImageFix"/>
<feColorMatrix in="SourceAlpha" type="matrix" values="0 0 0 0 0 0 0 0 0 0 0 0 0 0 0 0 0 0 127 0" result="hardAlpha"/>
<feOffset dy="19"/>
<feGaussianBlur stdDeviation="17"/>
<feColorMatrix type="matrix" values="0 0 0 0 0.2 0 0 0 0 0.2 0 0 0 0 0.2 0 0 0 0.02 0"/>
<feBlend mode="normal" in2="BackgroundImageFix" result="effect1_dropShadow"/>
<feBlend mode="normal" in="SourceGraphic" in2="effect1_dropShadow" result="shape"/>
</filter>
<clipPath id="clip0">
<rect width="1440" height="1024" fill="white" transform="translate(-1188 -45)"/>
</clipPath>
</defs>
</svg>
