<svg width="21" height="20" viewBox="0 0 21 20" fill="none" xmlns="http://www.w3.org/2000/svg">
<rect width="21" height="20" fill="#E5E5E5"/>
<g clip-path="url(#clip0)">
<rect width="1440" height="1024" transform="translate(-1303 -46)" fill="#FAFAFA"/>
<g filter="url(#filter0_d)">
<rect width="1440" height="112" transform="translate(-1303 -46)" fill="white"/>
<rect x="-78" y="-7" width="115" height="34" rx="17" fill="white"/>
<mask id="mask0" style="mask-type:alpha" maskUnits="userSpaceOnUse" x="0" y="0" width="21" height="20">
<path fill-rule="evenodd" clip-rule="evenodd" d="M9.31931 20H4.43331C1.98931 20 0.000305176 18.011 0.000305176 15.565V4.436C0.000305176 1.99 1.98931 0 4.43331 0H9.3083C11.7543 0 13.7443 1.99 13.7443 4.436V5.368C13.7443 5.782 13.4083 6.118 12.9943 6.118C12.5803 6.118 12.2443 5.782 12.2443 5.368V4.436C12.2443 2.816 10.9273 1.5 9.3083 1.5H4.43331C2.81631 1.5 1.50031 2.816 1.50031 4.436V15.565C1.50031 17.184 2.81631 18.5 4.43331 18.5H9.31931C10.9313 18.5 12.2443 17.188 12.2443 15.576V14.633C12.2443 14.219 12.5803 13.883 12.9943 13.883C13.4083 13.883 13.7443 14.219 13.7443 14.633V15.576C13.7443 18.016 11.7583 20 9.31931 20Z" fill="white"/>
<mask id="mask1" style="mask-type:alpha" maskUnits="userSpaceOnUse" x="6" y="9" width="15" height="2">
<path fill-rule="evenodd" clip-rule="evenodd" d="M6.99609 9.25H20.537V10.75H6.99609V9.25Z" fill="white"/>
</mask>
<g mask="url(#mask1)">
<path fill-rule="evenodd" clip-rule="evenodd" d="M19.7871 10.75H7.74609C7.33209 10.75 6.99609 10.414 6.99609 10C6.99609 9.586 7.33209 9.25 7.74609 9.25H19.7871C20.2011 9.25 20.5371 9.586 20.5371 10C20.5371 10.414 20.2011 10.75 19.7871 10.75Z" fill="white"/>
</g>
<mask id="mask2" style="mask-type:alpha" maskUnits="userSpaceOnUse" x="16" y="6" width="5" height="8">
<path fill-rule="evenodd" clip-rule="evenodd" d="M16.1097 6.33524H20.537V13.666H16.1097V6.33524Z" fill="white"/>
</mask>
<g mask="url(#mask2)">
<path fill-rule="evenodd" clip-rule="evenodd" d="M16.8594 13.666C16.6674 13.666 16.4744 13.593 16.3284 13.445C16.0364 13.151 16.0374 12.677 16.3304 12.385L18.7244 9.99999L16.3304 7.61599C16.0374 7.32399 16.0354 6.84999 16.3284 6.55599C16.6204 6.26199 17.0944 6.26199 17.3884 6.55399L20.3164 9.46899C20.4584 9.60899 20.5374 9.80099 20.5374 9.99999C20.5374 10.199 20.4584 10.391 20.3164 10.531L17.3884 13.447C17.2424 13.593 17.0504 13.666 16.8594 13.666Z" fill="white"/>
</g>
</mask>
<g mask="url(#mask0)">
<rect x="-2" y="-2.06055" width="24" height="24" fill="black"/>
</g>
</g>
</g>
<defs>
<filter id="filter0_d" x="-1337" y="-61" width="1508" height="180" filterUnits="userSpaceOnUse" color-interpolation-filters="sRGB">
<feFlood flood-opacity="0" result="BackgroundImageFix"/>
<feColorMatrix in="SourceAlpha" type="matrix" values="0 0 0 0 0 0 0 0 0 0 0 0 0 0 0 0 0 0 127 0" result="hardAlpha"/>
<feOffset dy="19"/>
<feGaussianBlur stdDeviation="17"/>
<feColorMatrix type="matrix" values="0 0 0 0 0.2 0 0 0 0 0.2 0 0 0 0 0.2 0 0 0 0.02 0"/>
<feBlend mode="normal" in2="BackgroundImageFix" result="effect1_dropShadow"/>
<feBlend mode="normal" in="SourceGraphic" in2="effect1_dropShadow" result="shape"/>
</filter>
<clipPath id="clip0">
<rect width="1440" height="1024" fill="white" transform="translate(-1303 -46)"/>
</clipPath>
</defs>
</svg>
